# xmcd
#
# Track frame offsets: 
#        150
#        16575
#        37472
#        66015
#        83377
#        97662
#        118600
#        136680
#        154705
#        171595
#        187212
#        198402
#        217762
#        239300
#        256487
#        275742
#        300347
#        320469
#
# Disc length: 4536 seconds
#
# Revision: 4
# Processed by: cddbd v1.5.1PL0 Copyright (c) Steve Scherf et al.
# Submitted via: ExactAudioCopy v0.95a5
#
DISCID=ef11b612
DTITLE=Nina Simone - Jazz and Blues [CD1 of 2)
DYEAR=1998
DGENRE=Blues
TTITLE0=My Baby Just Cares For Me
TTITLE1=Ain't Got No/I Got Life
TTITLE2=To Be Young Gifted And Black
TTITLE3=Don't Let Me Be Misunderstood
TTITLE4=He's Got The Whole World in His Hand
TTITLE5=Missisippi Goddamn
TTITLE6=Mood Indigo
TTITLE7=For All We Know
TTITLE8=I Sing just To Know I'm Alive
TTITLE9=I Want A Little Sugar In My Body
TTITLE10=He Needs Me
TTITLE11=Little Girl Blue
TTITLE12=Pirate Jenny
TTITLE13=Plain Gold Ring
TTITLE14=The Other Women
TTITLE15=Touching and Caring
TTITLE16=You Must Have Another Lover
TTITLE17=No Oppurtunity Necessary, No Experience Needed
EXTD=
EXTT0=
EXTT1=
EXTT2=
EXTT3=
EXTT4=
EXTT5=
EXTT6=
EXTT7=
EXTT8=
EXTT9=
EXTT10=
EXTT11=
EXTT12=
EXTT13=
EXTT14=
EXTT15=
EXTT16=
EXTT17=
PLAYORDER=
